<svg xmlns="http://www.w3.org/2000/svg" width="900" height="300" viewBox="0 0 900 300">
<defs>
<style>
  @keyframes fadeUp   { from { opacity:0; transform:translateY(8px)} to {opacity:1; transform:translateY(0)} }
  @keyframes blink    { 0%,100%{opacity:1} 50%{opacity:0} }
  @keyframes pulseBdr { 0%,100%{stroke-opacity:.6} 50%{stroke-opacity:1} }
  @keyframes scanline { from{transform:translateY(-10px)} to{transform:translateY(310px)} }
  @keyframes shimmer  { 0%{stop-color:#58A6FF;stop-opacity:.1} 50%{stop-color:#58A6FF;stop-opacity:.25} 100%{stop-color:#58A6FF;stop-opacity:.1} }

  .label   { font:700 10px 'Courier New',monospace; letter-spacing:.12em; fill:#7D8590; }
  .val     { font:800 28px 'Segoe UI',sans-serif; }
  .sub     { font:400 10px 'Courier New',monospace; fill:#7D8590; }
  .prompt  { font:600 13px 'Courier New',monospace; }
  .ts      { font:400 10px 'Courier New',monospace; fill:#7D8590; }
  .cursor  { animation: blink 1.1s step-end infinite; }
  .border  { animation: pulseBdr 2.5s ease-in-out infinite; }
  .stat    { animation: fadeUp .6s ease both; }
</style>
<linearGradient id="bgG" x1="0" y1="0" x2="1" y2="1">
  <stop offset="0%"   stop-color="#0D1117"/>
  <stop offset="100%" stop-color="#161B22"/>
</linearGradient>
<linearGradient id="topBar" x1="0" y1="0" x2="1" y2="0">
  <stop offset="0%"   stop-color="#58A6FF"/>
  <stop offset="50%"  stop-color="#BC8CFF"/>
  <stop offset="100%" stop-color="#F0B429"/>
</linearGradient>
<filter id="glow" x="-20%" y="-20%" width="140%" height="140%">
  <feGaussianBlur stdDeviation="3.5" result="blur"/>
  <feMerge><feMergeNode in="blur"/><feMergeNode in="SourceGraphic"/></feMerge>
</filter>
<clipPath id="clip"><rect width="900" height="300" rx="14"/></clipPath>
</defs>
<rect width="900" height="300" rx="14" fill="url(#bgG)"/>
<g clip-path="url(#clip)" opacity=".03">
<line x1="0" y1="0" x2="0" y2="300" stroke="#58A6FF" stroke-width=".8"/> <line x1="28" y1="0" x2="28" y2="300" stroke="#58A6FF" stroke-width=".8"/> <line x1="56" y1="0" x2="56" y2="300" stroke="#58A6FF" stroke-width=".8"/> <line x1="84" y1="0" x2="84" y2="300" stroke="#58A6FF" stroke-width=".8"/> <line x1="112" y1="0" x2="112" y2="300" stroke="#58A6FF" stroke-width=".8"/> <line x1="140" y1="0" x2="140" y2="300" stroke="#58A6FF" stroke-width=".8"/> <line x1="168" y1="0" x2="168" y2="300" stroke="#58A6FF" stroke-width=".8"/> <line x1="196" y1="0" x2="196" y2="300" stroke="#58A6FF" stroke-width=".8"/> <line x1="224" y1="0" x2="224" y2="300" stroke="#58A6FF" stroke-width=".8"/> <line x1="252" y1="0" x2="252" y2="300" stroke="#58A6FF" stroke-width=".8"/> <line x1="280" y1="0" x2="280" y2="300" stroke="#58A6FF" stroke-width=".8"/> <line x1="308" y1="0" x2="308" y2="300" stroke="#58A6FF" stroke-width=".8"/> <line x1="336" y1="0" x2="336" y2="300" stroke="#58A6FF" stroke-width=".8"/> <line x1="364" y1="0" x2="364" y2="300" stroke="#58A6FF" stroke-width=".8"/> <line x1="392" y1="0" x2="392" y2="300" stroke="#58A6FF" stroke-width=".8"/> <line x1="420" y1="0" x2="420" y2="300" stroke="#58A6FF" stroke-width=".8"/> <line x1="448" y1="0" x2="448" y2="300" stroke="#58A6FF" stroke-width=".8"/> <line x1="476" y1="0" x2="476" y2="300" stroke="#58A6FF" stroke-width=".8"/> <line x1="504" y1="0" x2="504" y2="300" stroke="#58A6FF" stroke-width=".8"/> <line x1="532" y1="0" x2="532" y2="300" stroke="#58A6FF" stroke-width=".8"/> <line x1="560" y1="0" x2="560" y2="300" stroke="#58A6FF" stroke-width=".8"/> <line x1="588" y1="0" x2="588" y2="300" stroke="#58A6FF" stroke-width=".8"/> <line x1="616" y1="0" x2="616" y2="300" stroke="#58A6FF" stroke-width=".8"/> <line x1="644" y1="0" x2="644" y2="300" stroke="#58A6FF" stroke-width=".8"/> <line x1="672" y1="0" x2="672" y2="300" stroke="#58A6FF" stroke-width=".8"/> <line x1="700" y1="0" x2="700" y2="300" stroke="#58A6FF" stroke-width=".8"/> <line x1="728" y1="0" x2="728" y2="300" stroke="#58A6FF" stroke-width=".8"/> <line x1="756" y1="0" x2="756" y2="300" stroke="#58A6FF" stroke-width=".8"/> <line x1="784" y1="0" x2="784" y2="300" stroke="#58A6FF" stroke-width=".8"/> <line x1="812" y1="0" x2="812" y2="300" stroke="#58A6FF" stroke-width=".8"/> <line x1="840" y1="0" x2="840" y2="300" stroke="#58A6FF" stroke-width=".8"/> <line x1="868" y1="0" x2="868" y2="300" stroke="#58A6FF" stroke-width=".8"/> <line x1="896" y1="0" x2="896" y2="300" stroke="#58A6FF" stroke-width=".8"/>
<line x1="0" y1="0" x2="900" y2="0" stroke="#58A6FF" stroke-width=".8"/> <line x1="0" y1="28" x2="900" y2="28" stroke="#58A6FF" stroke-width=".8"/> <line x1="0" y1="56" x2="900" y2="56" stroke="#58A6FF" stroke-width=".8"/> <line x1="0" y1="84" x2="900" y2="84" stroke="#58A6FF" stroke-width=".8"/> <line x1="0" y1="112" x2="900" y2="112" stroke="#58A6FF" stroke-width=".8"/> <line x1="0" y1="140" x2="900" y2="140" stroke="#58A6FF" stroke-width=".8"/> <line x1="0" y1="168" x2="900" y2="168" stroke="#58A6FF" stroke-width=".8"/> <line x1="0" y1="196" x2="900" y2="196" stroke="#58A6FF" stroke-width=".8"/> <line x1="0" y1="224" x2="900" y2="224" stroke="#58A6FF" stroke-width=".8"/> <line x1="0" y1="252" x2="900" y2="252" stroke="#58A6FF" stroke-width=".8"/> <line x1="0" y1="280" x2="900" y2="280" stroke="#58A6FF" stroke-width=".8"/>
</g>
<g clip-path="url(#clip)" opacity=".06">
  <rect x="0" y="0" width="900" height="6" rx="0" fill="#58A6FF">
    <animateTransform attributeName="transform" type="translate" from="0 -6" to="0 306" dur="3.5s" repeatCount="indefinite"/>
  </rect>
</g>
<rect x="1" y="1" width="898" height="298" rx="13" fill="none" stroke="#58A6FF" stroke-width="1.2" class="border" filter="url(#glow)"/>
<rect x="0" y="0" width="900" height="4" rx="0" fill="url(#topBar)"/>
<line x1="640" y1="20" x2="640" y2="280" stroke="#21262D" stroke-width="1"/>
<text x="26" y="42" class="prompt">
  <tspan fill="#3FB950">guru</tspan>
  <tspan fill="#7D8590">@github</tspan>
  <tspan fill="#7D8590">:</tspan>
  <tspan fill="#58A6FF">~/stats</tspan>
  <tspan fill="#7D8590"> $ </tspan>
  <tspan fill="#E6EDF3">live --fetch --render</tspan>
  <tspan class="cursor" fill="#58A6FF">█</tspan>
</text>
<line x1="26" y1="56" x2="620" y2="56" stroke="#21262D" stroke-width="1"/>
<text x="26"  y="76" class="label">// ACTIVITY METRICS</text>
<text x="26"  y="168" class="label">// REPOSITORY METRICS</text>
<g class="stat" style="animation-delay:0.0s">
  <text x="60" y="125" class="label">COMMITS</text>
  <text x="60" y="149"  class="val" fill="#58A6FF" filter="url(#glow)">441</text>
  <text x="60" y="163" class="sub">all time</text>
</g>
<g class="stat" style="animation-delay:0.1s">
  <text x="210" y="125" class="label">STREAK</text>
  <text x="210" y="149"  class="val" fill="#F0B429" filter="url(#glow)">0d</text>
  <text x="210" y="163" class="sub">current</text>
</g>
<g class="stat" style="animation-delay:0.2s">
  <text x="360" y="125" class="label">STARS</text>
  <text x="360" y="149"  class="val" fill="#BC8CFF" filter="url(#glow)">3</text>
  <text x="360" y="163" class="sub">earned</text>
</g>
<g class="stat" style="animation-delay:0.3s">
  <text x="510" y="125" class="label">PRs</text>
  <text x="510" y="149"  class="val" fill="#3FB950" filter="url(#glow)">19</text>
  <text x="510" y="163" class="sub">merged</text>
</g>
<g class="stat" style="animation-delay:0.4s">
  <text x="60" y="215" class="label">REPOS</text>
  <text x="60" y="239"  class="val" fill="#FF7B72" filter="url(#glow)">12</text>
  <text x="60" y="253" class="sub">public</text>
</g>
<g class="stat" style="animation-delay:0.5s">
  <text x="210" y="215" class="label">FOLLOWERS</text>
  <text x="210" y="239"  class="val" fill="#58A6FF" filter="url(#glow)">16</text>
  <text x="210" y="253" class="sub">github</text>
</g>
<g class="stat" style="animation-delay:0.6s">
  <text x="360" y="215" class="label">ISSUES</text>
  <text x="360" y="239"  class="val" fill="#F0B429" filter="url(#glow)">0</text>
  <text x="360" y="253" class="sub">open</text>
</g>
<g class="stat" style="animation-delay:0.7s">
  <text x="510" y="215" class="label">BEST</text>
  <text x="510" y="239"  class="val" fill="#3FB950" filter="url(#glow)">6d</text>
  <text x="510" y="253" class="sub">longest streak</text>
</g>
<text x="658" y="76" class="label">// CONTRIBUTION CALENDAR  (18w)</text>
<g class="stat" style="animation-delay:.4s">
<rect x="650" y="105" width="8" height="8" rx="2" fill="#21262D" opacity="0.95"/>
    <rect x="650" y="115" width="8" height="8" rx="2" fill="#21262D" opacity="0.95"/>
    <rect x="650" y="125" width="8" height="8" rx="2" fill="#21262D" opacity="0.95"/>
    <rect x="650" y="135" width="8" height="8" rx="2" fill="#21262D" opacity="0.95"/>
    <rect x="650" y="145" width="8" height="8" rx="2" fill="#21262D" opacity="0.95"/>
    <rect x="650" y="155" width="8" height="8" rx="2" fill="#21262D" opacity="0.95"/>
    <rect x="650" y="165" width="8" height="8" rx="2" fill="#21262D" opacity="0.95"/>
    <rect x="660" y="105" width="8" height="8" rx="2" fill="#21262D" opacity="0.95"/>
    <rect x="660" y="115" width="8" height="8" rx="2" fill="#21262D" opacity="0.95"/>
    <rect x="660" y="125" width="8" height="8" rx="2" fill="#21262D" opacity="0.95"/>
    <rect x="660" y="135" width="8" height="8" rx="2" fill="#21262D" opacity="0.95"/>
    <rect x="660" y="145" width="8" height="8" rx="2" fill="#21262D" opacity="0.95"/>
    <rect x="660" y="155" width="8" height="8" rx="2" fill="#21262D" opacity="0.95"/>
    <rect x="660" y="165" width="8" height="8" rx="2" fill="#21262D" opacity="0.95"/>
    <rect x="670" y="105" width="8" height="8" rx="2" fill="#21262D" opacity="0.95"/>
    <rect x="670" y="115" width="8" height="8" rx="2" fill="#21262D" opacity="0.95"/>
    <rect x="670" y="125" width="8" height="8" rx="2" fill="#21262D" opacity="0.95"/>
    <rect x="670" y="135" width="8" height="8" rx="2" fill="#21262D" opacity="0.95"/>
    <rect x="670" y="145" width="8" height="8" rx="2" fill="#21262D" opacity="0.95"/>
    <rect x="670" y="155" width="8" height="8" rx="2" fill="#21262D" opacity="0.95"/>
    <rect x="670" y="165" width="8" height="8" rx="2" fill="#21262D" opacity="0.95"/>
    <rect x="680" y="105" width="8" height="8" rx="2" fill="#0e4429" opacity="0.95"/>
    <rect x="680" y="115" width="8" height="8" rx="2" fill="#21262D" opacity="0.95"/>
    <rect x="680" y="125" width="8" height="8" rx="2" fill="#21262D" opacity="0.95"/>
    <rect x="680" y="135" width="8" height="8" rx="2" fill="#21262D" opacity="0.95"/>
    <rect x="680" y="145" width="8" height="8" rx="2" fill="#21262D" opacity="0.95"/>
    <rect x="680" y="155" width="8" height="8" rx="2" fill="#21262D" opacity="0.95"/>
    <rect x="680" y="165" width="8" height="8" rx="2" fill="#0e4429" opacity="0.95"/>
    <rect x="690" y="105" width="8" height="8" rx="2" fill="#21262D" opacity="0.95"/>
    <rect x="690" y="115" width="8" height="8" rx="2" fill="#21262D" opacity="0.95"/>
    <rect x="690" y="125" width="8" height="8" rx="2" fill="#21262D" opacity="0.95"/>
    <rect x="690" y="135" width="8" height="8" rx="2" fill="#21262D" opacity="0.95"/>
    <rect x="690" y="145" width="8" height="8" rx="2" fill="#21262D" opacity="0.95"/>
    <rect x="690" y="155" width="8" height="8" rx="2" fill="#21262D" opacity="0.95"/>
    <rect x="690" y="165" width="8" height="8" rx="2" fill="#39d353" opacity="0.95"/>
    <rect x="700" y="105" width="8" height="8" rx="2" fill="#39d353" opacity="0.95"/>
    <rect x="700" y="115" width="8" height="8" rx="2" fill="#21262D" opacity="0.95"/>
    <rect x="700" y="125" width="8" height="8" rx="2" fill="#006d32" opacity="0.95"/>
    <rect x="700" y="135" width="8" height="8" rx="2" fill="#0e4429" opacity="0.95"/>
    <rect x="700" y="145" width="8" height="8" rx="2" fill="#39d353" opacity="0.95"/>
    <rect x="700" y="155" width="8" height="8" rx="2" fill="#39d353" opacity="0.95"/>
    <rect x="700" y="165" width="8" height="8" rx="2" fill="#26a641" opacity="0.95"/>
    <rect x="710" y="105" width="8" height="8" rx="2" fill="#21262D" opacity="0.95"/>
    <rect x="710" y="115" width="8" height="8" rx="2" fill="#21262D" opacity="0.95"/>
    <rect x="710" y="125" width="8" height="8" rx="2" fill="#26a641" opacity="0.95"/>
    <rect x="710" y="135" width="8" height="8" rx="2" fill="#39d353" opacity="0.95"/>
    <rect x="710" y="145" width="8" height="8" rx="2" fill="#21262D" opacity="0.95"/>
    <rect x="710" y="155" width="8" height="8" rx="2" fill="#21262D" opacity="0.95"/>
    <rect x="710" y="165" width="8" height="8" rx="2" fill="#006d32" opacity="0.95"/>
    <rect x="720" y="105" width="8" height="8" rx="2" fill="#21262D" opacity="0.95"/>
    <rect x="720" y="115" width="8" height="8" rx="2" fill="#0e4429" opacity="0.95"/>
    <rect x="720" y="125" width="8" height="8" rx="2" fill="#006d32" opacity="0.95"/>
    <rect x="720" y="135" width="8" height="8" rx="2" fill="#21262D" opacity="0.95"/>
    <rect x="720" y="145" width="8" height="8" rx="2" fill="#39d353" opacity="0.95"/>
    <rect x="720" y="155" width="8" height="8" rx="2" fill="#21262D" opacity="0.95"/>
    <rect x="720" y="165" width="8" height="8" rx="2" fill="#21262D" opacity="0.95"/>
    <rect x="730" y="105" width="8" height="8" rx="2" fill="#39d353" opacity="0.95"/>
    <rect x="730" y="115" width="8" height="8" rx="2" fill="#21262D" opacity="0.95"/>
    <rect x="730" y="125" width="8" height="8" rx="2" fill="#006d32" opacity="0.95"/>
    <rect x="730" y="135" width="8" height="8" rx="2" fill="#0e4429" opacity="0.95"/>
    <rect x="730" y="145" width="8" height="8" rx="2" fill="#21262D" opacity="0.95"/>
    <rect x="730" y="155" width="8" height="8" rx="2" fill="#0e4429" opacity="0.95"/>
    <rect x="730" y="165" width="8" height="8" rx="2" fill="#0e4429" opacity="0.95"/>
    <rect x="740" y="105" width="8" height="8" rx="2" fill="#0e4429" opacity="0.95"/>
    <rect x="740" y="115" width="8" height="8" rx="2" fill="#21262D" opacity="0.95"/>
    <rect x="740" y="125" width="8" height="8" rx="2" fill="#21262D" opacity="0.95"/>
    <rect x="740" y="135" width="8" height="8" rx="2" fill="#21262D" opacity="0.95"/>
    <rect x="740" y="145" width="8" height="8" rx="2" fill="#0e4429" opacity="0.95"/>
    <rect x="740" y="155" width="8" height="8" rx="2" fill="#0e4429" opacity="0.95"/>
    <rect x="740" y="165" width="8" height="8" rx="2" fill="#21262D" opacity="0.95"/>
    <rect x="750" y="105" width="8" height="8" rx="2" fill="#0e4429" opacity="0.95"/>
    <rect x="750" y="115" width="8" height="8" rx="2" fill="#0e4429" opacity="0.95"/>
    <rect x="750" y="125" width="8" height="8" rx="2" fill="#21262D" opacity="0.95"/>
    <rect x="750" y="135" width="8" height="8" rx="2" fill="#21262D" opacity="0.95"/>
    <rect x="750" y="145" width="8" height="8" rx="2" fill="#21262D" opacity="0.95"/>
    <rect x="750" y="155" width="8" height="8" rx="2" fill="#21262D" opacity="0.95"/>
    <rect x="750" y="165" width="8" height="8" rx="2" fill="#006d32" opacity="0.95"/>
    <rect x="760" y="105" width="8" height="8" rx="2" fill="#21262D" opacity="0.95"/>
    <rect x="760" y="115" width="8" height="8" rx="2" fill="#21262D" opacity="0.95"/>
    <rect x="760" y="125" width="8" height="8" rx="2" fill="#21262D" opacity="0.95"/>
    <rect x="760" y="135" width="8" height="8" rx="2" fill="#006d32" opacity="0.95"/>
    <rect x="760" y="145" width="8" height="8" rx="2" fill="#0e4429" opacity="0.95"/>
    <rect x="760" y="155" width="8" height="8" rx="2" fill="#26a641" opacity="0.95"/>
    <rect x="760" y="165" width="8" height="8" rx="2" fill="#21262D" opacity="0.95"/>
    <rect x="770" y="105" width="8" height="8" rx="2" fill="#21262D" opacity="0.95"/>
    <rect x="770" y="115" width="8" height="8" rx="2" fill="#21262D" opacity="0.95"/>
    <rect x="770" y="125" width="8" height="8" rx="2" fill="#21262D" opacity="0.95"/>
    <rect x="770" y="135" width="8" height="8" rx="2" fill="#0e4429" opacity="0.95"/>
    <rect x="770" y="145" width="8" height="8" rx="2" fill="#21262D" opacity="0.95"/>
    <rect x="770" y="155" width="8" height="8" rx="2" fill="#21262D" opacity="0.95"/>
    <rect x="770" y="165" width="8" height="8" rx="2" fill="#21262D" opacity="0.95"/>
    <rect x="780" y="105" width="8" height="8" rx="2" fill="#21262D" opacity="0.95"/>
    <rect x="780" y="115" width="8" height="8" rx="2" fill="#21262D" opacity="0.95"/>
    <rect x="780" y="125" width="8" height="8" rx="2" fill="#39d353" opacity="0.95"/>
    <rect x="780" y="135" width="8" height="8" rx="2" fill="#0e4429" opacity="0.95"/>
    <rect x="780" y="145" width="8" height="8" rx="2" fill="#0e4429" opacity="0.95"/>
    <rect x="780" y="155" width="8" height="8" rx="2" fill="#0e4429" opacity="0.95"/>
    <rect x="780" y="165" width="8" height="8" rx="2" fill="#0e4429" opacity="0.95"/>
    <rect x="790" y="105" width="8" height="8" rx="2" fill="#39d353" opacity="0.95"/>
    <rect x="790" y="115" width="8" height="8" rx="2" fill="#21262D" opacity="0.95"/>
    <rect x="790" y="125" width="8" height="8" rx="2" fill="#21262D" opacity="0.95"/>
    <rect x="790" y="135" width="8" height="8" rx="2" fill="#39d353" opacity="0.95"/>
    <rect x="790" y="145" width="8" height="8" rx="2" fill="#21262D" opacity="0.95"/>
    <rect x="790" y="155" width="8" height="8" rx="2" fill="#39d353" opacity="0.95"/>
    <rect x="790" y="165" width="8" height="8" rx="2" fill="#21262D" opacity="0.95"/>
    <rect x="800" y="105" width="8" height="8" rx="2" fill="#006d32" opacity="0.95"/>
    <rect x="800" y="115" width="8" height="8" rx="2" fill="#0e4429" opacity="0.95"/>
    <rect x="800" y="125" width="8" height="8" rx="2" fill="#21262D" opacity="0.95"/>
    <rect x="800" y="135" width="8" height="8" rx="2" fill="#21262D" opacity="0.95"/>
    <rect x="800" y="145" width="8" height="8" rx="2" fill="#21262D" opacity="0.95"/>
    <rect x="800" y="155" width="8" height="8" rx="2" fill="#26a641" opacity="0.95"/>
    <rect x="800" y="165" width="8" height="8" rx="2" fill="#0e4429" opacity="0.95"/>
    <rect x="810" y="105" width="8" height="8" rx="2" fill="#21262D" opacity="0.95"/>
    <rect x="810" y="115" width="8" height="8" rx="2" fill="#21262D" opacity="0.95"/>
    <rect x="810" y="125" width="8" height="8" rx="2" fill="#21262D" opacity="0.95"/>
    <rect x="810" y="135" width="8" height="8" rx="2" fill="#21262D" opacity="0.95"/>
    <rect x="810" y="145" width="8" height="8" rx="2" fill="#006d32" opacity="0.95"/>
    <rect x="810" y="155" width="8" height="8" rx="2" fill="#39d353" opacity="0.95"/>
    <rect x="810" y="165" width="8" height="8" rx="2" fill="#21262D" opacity="0.95"/>
    <rect x="820" y="105" width="8" height="8" rx="2" fill="#0e4429" opacity="0.95"/>
    <rect x="820" y="115" width="8" height="8" rx="2" fill="#0e4429" opacity="0.95"/>
</g>
<line x1="26" y1="262" x2="874" y2="262" stroke="#21262D" stroke-width="1"/>
<text x="26" y="282" class="ts">⟳ AUTO-UPDATED: 2026-06-22  04:59 UTC</text>
<text x="874" y="282" class="ts" text-anchor="end">github.com/gurukannan22</text>
</svg>